# xmcd
#
# Track frame offsets:
#	150
#	14072
#	24976
#	37843
#	53269
#	66248
#	84621
#	101542
#	116837
#	133304
#	149890
#	160479
#	172668
#	192031
#	206308
#	224059
#
# Disc length: 3146 seconds
#
# Revision: 0
# Processed by: cddbd v1.5.2PL0 Copyright (c) Steve Scherf et al.
# Submitted via: EasyCDDAExtractor 12.0.1.1
#
DISCID=e50c4810
DTITLE=Helmut Grünberger - My Favourite Songs
DYEAR=1900
DGENRE=
TTITLE0=Behind closed Doors
TTITLE1=On the Road Again
TTITLE2=Sing me back Home
TTITLE3=Rhinestone Cowboy
TTITLE4=Help me make it trough the Night
TTITLE5=Friends in Lover Places
TTITLE6=I can`t stop loving you
TTITLE7=Daddy Frank
TTITLE8=If Tomorrow never comes
TTITLE9=Jambalaya
TTITLE10=Just when I need you most
TTITLE11=Lazy Lady
TTITLE12=Murder on Music row
TTITLE13=Lodi
TTITLE14=Mexican Girl
TTITLE15=Nix is so Stüh
EXTD=
EXTT0=
EXTT1=
EXTT2=
EXTT3=
EXTT4=
EXTT5=
EXTT6=
EXTT7=
EXTT8=
EXTT9=
EXTT10=
EXTT11=
EXTT12=
EXTT13=
EXTT14=
EXTT15=
PLAYORDER=
